<svg width="108" height="142" viewBox="0 0 108 142" xmlns="http://www.w3.org/2000/svg">
    <path d="m54 0.0010314c-14.291 0.0030691-26.596 10.087-29.408 24.099-0.69553-0.065539-1.3938-0.098646-2.0924-0.099217-12.426 4.5e-5 -22.5 10.073-22.5 22.5 7.9374e-4 6.2859 2.6313 12.285 7.2543 16.544-3.4218 4.9924-5.2535 10.903-5.2543 16.956 1.561e-4 16.568 13.432 30.001 30.001 29.998 6.4931-5e-3 12.809-2.1171 18-6.0181v-40.325l-12.828-12.828a3.9999 3.9999 0 0 1-5.29e-4 -5.657 3.9999 3.9999 0 0 1 5.657 0l7.1714 7.1712v-20.343c1.35e-4 -2.2089 1.7908-3.9997 3.9997-3.9997 2.2089 1.3e-4 3.9997 1.7908 3.9997 3.9997v29.085a3.9999 3.9999 0 0 1 0 2.112v10.358l14.385-14.385a3.9999 3.9999 0 0 1 5.657 5.29e-4 3.9999 3.9999 0 0 1 0 5.6565l-20.042 20.041v19.111c5.1905 3.9012 11.507 6.0131 18 6.0181 16.568 1.3e-4 30.001-13.431 30.001-29.998-7.9e-4 -6.0525-1.8326-11.963-5.2543-16.956 4.623-4.2592 7.2535-10.258 7.2542-16.544-5e-5 -12.426-10.073-22.5-22.5-22.5-0.6986 5.29e-4 -1.3968 0.03372-2.0924 0.09922-2.8109-14.012-15.116-24.096-29.408-24.099z" fill="#3c7d3c"/>
    <path d="m54.002 104a4 4 0 0 0-4.0003 3.9998v30a4 4 0 0 0 4.0003 3.9998 4 4 0 0 0 3.9998-3.9998v-30a4 4 0 0 0-3.9998-3.9998z" fill="#3c7d3c"/>
</svg>
