<svg width="200mm" height="200mm" version="1.1" viewBox="0 0 200 200" xmlns="http://www.w3.org/2000/svg">
 <rect y="1.7764e-15" width="200" height="200" fill="#3c7d3c"/>
 <path d="m100 29c-14.291 0.0031-26.597 10.087-29.408 24.099-0.69554-0.0655-1.3938-0.0986-2.0924-0.0992-12.426 5e-5 -22.5 10.074-22.5 22.5 7.93e-4 6.286 2.6314 12.285 7.2543 16.544-3.4219 4.9926-5.2536 10.903-5.2545 16.956 1.56e-4 16.569 13.432 30 30 30 6.4932-5e-3 12.809-2.1171 18-6.0182v-40.325l-12.828-12.828a4 4 0 0 1-5.3e-4 -5.657 4 4 0 0 1 5.657 0l7.1716 7.1711v-20.343c1.4e-4 -2.2089 1.7908-3.9996 3.9998-3.9998 2.209 1.3e-4 3.9996 1.7908 3.9998 3.9998v29.086a4 4 0 0 1 0 2.112v10.359l14.385-14.385a4 4 0 0 1 5.657 5.3e-4 4 4 0 0 1 0 5.6565l-20.042 20.042v19.112c5.1906 3.9012 11.507 6.0132 18 6.0182 16.569 1.3e-4 30-13.431 30-30-8e-4 -6.0527-1.8326-11.964-5.2545-16.956 4.623-4.2593 7.2536-10.258 7.2543-16.544-5e-5 -12.426-10.074-22.5-22.5-22.5-0.69862 5.2e-4 -1.3968 0.0337-2.0924 0.0992-2.811-14.012-15.116-24.096-29.408-24.099z" fill="#ff9b55"/>
 <path d="m100 133a4 4 0 0 0-4.0003 3.9998v30a4 4 0 0 0 4.0003 3.9998 4 4 0 0 0 3.9998-3.9998v-30a4 4 0 0 0-3.9998-3.9998z" fill="#ff9b55"/>
</svg>
