<svg width="480mm" height="180mm" version="1.1" viewBox="0 0 480 180" xmlns="http://www.w3.org/2000/svg">
 <path d="m74.7 18.998c-14.291 0.0031-26.597 10.087-29.408 24.099-0.69554-0.0655-1.3938-0.0986-2.0924-0.0992-12.426 5e-5 -22.5 10.074-22.5 22.5 7.93e-4 6.286 2.6314 12.285 7.2543 16.544-3.4219 4.9926-5.2536 10.903-5.2545 16.956 1.56e-4 16.569 13.432 30 30 30 6.4932-5e-3 12.809-2.1171 18-6.0182v-40.325l-12.828-12.828a4 4 0 0 1-5.3e-4 -5.657 4 4 0 0 1 5.657 0l7.1716 7.1711v-20.343c1.4e-4 -2.2089 1.7908-3.9996 3.9998-3.9998 2.209 1.3e-4 3.9996 1.7908 3.9998 3.9998v29.086a4 4 0 0 1 0 2.112v10.359l14.385-14.385a4 4 0 0 1 5.657 5.3e-4 4 4 0 0 1 0 5.6565l-20.042 20.042v19.112c5.1906 3.9012 11.507 6.0132 18 6.0182 16.569 1.3e-4 30-13.431 30-30-8e-4 -6.0527-1.8326-11.964-5.2545-16.956 4.623-4.2593 7.2536-10.258 7.2543-16.544-5e-5 -12.426-10.074-22.5-22.5-22.5-0.69862 5.2e-4 -1.3968 0.0337-2.0924 0.0992-2.811-14.012-15.116-24.096-29.408-24.099z" fill="#FFFFFF"/>
 <path d="m74.7 123a4 4 0 0 0-4.0003 3.9998v30a4 4 0 0 0 4.0003 3.9998 4 4 0 0 0 3.9998-3.9998v-30a4 4 0 0 0-3.9998-3.9998z" fill="#FFFFFF"/>
 <path d="m447.94 118.03v41.487h-13.829v-41.487h-11.359v-11.712h36.548v11.712z" fill="#FFFFFF"/>
 <path d="m411.04 119.94q-2.2578-1.8344-4.5156-2.6811-2.2578-0.91722-4.3744-0.91722-2.6811 0-4.3744 1.27t-1.6933 3.3161q0 1.4111 0.84666 2.3283 0.84667 0.91722 2.1872 1.6228 1.4111 0.635 3.1044 1.1289 1.7639 0.49389 3.4572 1.0583 6.7733 2.2578 9.8778 6.0678 3.175 3.7394 3.175 9.8072 0 4.0922-1.4111 7.4083-1.3406 3.3161-4.0217 5.715-2.6106 2.3283-6.4911 3.5983-3.81 1.3406-8.6783 1.3406-10.089 0-18.697-5.9972l5.9267-11.148q3.1044 2.7517 6.1383 4.0922t5.9972 1.3406q3.3867 0 5.0094-1.5522 1.6933-1.5522 1.6933-3.5278 0-1.1994-0.42333-2.0461-0.42334-0.91722-1.4111-1.6228-0.98777-0.77611-2.6106-1.4111-1.5522-0.635-3.81-1.4111-2.6811-0.84667-5.2917-1.8344-2.54-1.0583-4.5861-2.7517-1.9756-1.6933-3.2456-4.2333-1.1994-2.6106-1.1994-6.5617t1.27-7.1261q1.3406-3.2456 3.6689-5.5033 2.3989-2.3283 5.7856-3.5983 3.4572-1.27 7.6906-1.27 3.9511 0 8.255 1.1289 4.3039 1.0583 8.255 3.175z" fill="#FFFFFF"/>
 <path d="m371.86 118.03h-16.439v8.89h15.522v11.712h-15.522v9.1722h16.439v11.712h-30.268v-53.199h30.268z" fill="#FFFFFF"/>
 <path d="m305.4 130.1h2.6106q4.0922 0 6.2794-1.6933t2.1872-4.8683-2.1872-4.8683-6.2794-1.6933h-2.6106zm30.409 29.422h-17.216l-13.194-20.461v20.461h-13.829v-53.199h21.519q4.445 0 7.7611 1.3406 3.3161 1.27 5.4328 3.5278 2.1872 2.2578 3.2456 5.2211 1.1289 2.9633 1.1289 6.35 0 6.0678-2.9633 9.8778-2.8928 3.7394-8.6078 5.08z" fill="#FFFFFF"/>
 <path d="m238.32 132.92q0 3.175 1.1994 5.8561t3.2456 4.6567q2.0461 1.9756 4.7272 3.1044 2.7517 1.0583 5.7856 1.0583t5.715-1.0583q2.7517-1.1289 4.7978-3.1044 2.1167-1.9756 3.3161-4.6567t1.1994-5.8561-1.1994-5.8561-3.3161-4.6567q-2.0461-1.9756-4.7978-3.0339-2.6811-1.1289-5.715-1.1289t-5.7856 1.1289q-2.6811 1.0583-4.7272 3.0339t-3.2456 4.6567q-1.1994 2.6811-1.1994 5.8561zm-14.464 0q0-5.9267 2.1872-11.007 2.1872-5.1506 6.0678-8.9606t9.2428-5.9267q5.4328-2.1872 11.924-2.1872 6.4206 0 11.853 2.1872 5.4328 2.1167 9.3133 5.9267 3.9511 3.81 6.1383 8.9606 2.1872 5.08 2.1872 11.007t-2.1872 11.077q-2.1872 5.08-6.1383 8.89-3.8806 3.81-9.3133 5.9972-5.4328 2.1167-11.853 2.1167-6.4911 0-11.924-2.1167-5.3622-2.1872-9.2428-5.9972t-6.0678-8.89q-2.1872-5.1506-2.1872-11.077z" fill="#FFFFFF"/>
 <path d="m208.85 118.03v41.487h-13.829v-41.487h-11.359v-11.712h36.548v11.712z" fill="#FFFFFF"/>
 <path d="m171.96 119.94q-2.2578-1.8344-4.5156-2.6811-2.2578-0.91722-4.3744-0.91722-2.6811 0-4.3744 1.27t-1.6933 3.3161q0 1.4111 0.84667 2.3283t2.1872 1.6228q1.4111 0.635 3.1044 1.1289 1.7639 0.49389 3.4572 1.0583 6.7733 2.2578 9.8778 6.0678 3.175 3.7394 3.175 9.8072 0 4.0922-1.4111 7.4083-1.3406 3.3161-4.0217 5.715-2.6106 2.3283-6.4911 3.5983-3.81 1.3406-8.6783 1.3406-10.089 0-18.697-5.9972l5.9267-11.148q3.1044 2.7517 6.1383 4.0922t5.9972 1.3406q3.3867 0 5.0094-1.5522 1.6933-1.5522 1.6933-3.5278 0-1.1994-0.42334-2.0461-0.42333-0.91722-1.4111-1.6228-0.98778-0.77611-2.6106-1.4111-1.5522-0.635-3.81-1.4111-2.6811-0.84667-5.2917-1.8344-2.54-1.0583-4.5861-2.7517-1.9756-1.6933-3.2456-4.2333-1.1994-2.6106-1.1994-6.5617t1.27-7.1261q1.3406-3.2456 3.6689-5.5033 2.3989-2.3283 5.7856-3.5983 3.4572-1.27 7.6906-1.27 3.9511 0 8.255 1.1289 4.3039 1.0583 8.255 3.175z" fill="#FFFFFF"/>
</svg>
